<?xml version="1.0" encoding="utf-8"?>
<!-- Generator: Adobe Illustrator 28.0.0, SVG Export Plug-In . SVG Version: 6.00 Build 0)  -->
<svg version="1.1" id="Layer_1" xmlns="http://www.w3.org/2000/svg" xmlns:xlink="http://www.w3.org/1999/xlink" x="0px" y="0px"
	 viewBox="0 0 159.2 159.2" style="enable-background:new 0 0 159.2 159.2;" xml:space="preserve">
<style type="text/css">
	.st0{fill:#FFFFFF;stroke:#000000;stroke-width:5.6693;stroke-miterlimit:10;}
</style>
<g>
	<circle class="st0" cx="79.6" cy="79.6" r="76.76"/>
	<g>
		<path d="M128.3,79.57c0,0.55-0.01,1.04,0,1.54c0.05,1.88-0.01,3.75-0.33,5.61c-0.75,4.32-2.05,8.47-3.98,12.41
			c-1.18,2.41-2.55,4.71-4,6.97c-6.53,10.18-13.35,20.16-20.38,30c-0.42,0.59-0.85,1.18-1.28,1.77c-0.21,0.3-0.48,0.48-0.87,0.45
			c-0.15-0.01-0.31,0-0.46,0c-4.14,0-8.27,0-12.4,0c-1.68,0-1.69-0.03-1.04-1.55c4.11-9.56,8.22-19.12,12.33-28.67
			c0.27-0.63,0.45-1.35,0.88-1.85c0.46-0.55,1.28-0.63,1.94-0.92c1.07-0.47,1-0.48,1.77,0.31c1.12,1.15,2.23,2.32,3.34,3.48
			c0.4,0.42,0.78,0.84,1.19,1.24c0.31,0.31,0.45,0.33,0.81,0.13c0.17-0.09,0.32-0.21,0.49-0.31c2.46-1.51,4.71-3.28,6.78-5.28
			c4.55-4.4,8.01-9.53,10.35-15.42c1.93-4.85,3.07-9.85,2.74-15.12c-0.06-0.96-0.18-1.9-0.38-2.84c-0.71-3.33-2.02-6.41-3.81-9.3
			c-3.61-5.84-8.41-10.48-14.27-14.03c-1.54-0.93-3.12-1.78-4.77-2.5c-0.18-0.08-0.34-0.17-0.54-0.05c0.13,0.26,0.41,0.33,0.63,0.47
			c1.48,0.88,2.9,1.86,4.26,2.92c1.33,1.04,2.58,2.17,3.83,3.3c2.68,2.42,5.12,5.06,7.19,8.01c2.72,3.87,4.71,8.05,5.44,12.77
			c0.19,1.21,0.37,2.43,0.28,3.65c-0.13,1.68-0.33,3.35-0.69,5c-1.92,8.8-6.29,16.19-12.88,22.31c-1.26,1.17-2.61,2.25-4.02,3.24
			c-0.57,0.4-0.62,0.4-1.08-0.03c-1.15-1.07-2.2-2.24-3.25-3.4c-0.07-0.08-0.1-0.2-0.17-0.35c0.23-0.24,0.46-0.5,0.7-0.74
			c0.35-0.36,0.67-0.73,0.92-1.17c0.43-0.76,0.59-1.54,0.38-2.42c-0.33-1.37-1.04-2.53-1.73-3.73c-0.97-1.68-2.41-2.11-4.2-1.8
			c-0.07,0.01-0.15,0.04-0.22,0.05c-0.91,0.12-1.79,0.39-2.67,0.64c-1.94,0.57-1.39,0.76-2.97-0.9c-0.05-0.05-0.06-0.14-0.11-0.24
			c0.18-0.12,0.36-0.26,0.54-0.38c3.89-2.49,7.34-5.51,10.47-8.9c1.64-1.78,3.1-3.7,4.35-5.76c1.52-2.51,2.59-5.19,3.03-8.12
			c0.09-0.57,0.14-1.14,0.08-1.71c-0.01-0.05-0.08-0.11-0.13-0.13c-0.08-0.04-0.15,0.01-0.17,0.1c-0.02,0.11-0.06,0.22-0.07,0.33
			c-0.05,1.09-0.36,2.11-0.75,3.11c-0.53,1.36-1.26,2.62-2.07,3.83c-2.52,3.8-5.66,7.03-9.15,9.93c-0.7,0.59-1.44,1.14-2.16,1.71
			c-0.24,0.19-0.47,0.2-0.73,0.02c-0.95-0.65-1.91-1.28-2.86-1.92c-0.31-0.21-0.31-0.33,0.01-0.62c0.67-0.58,1.35-1.13,2.01-1.72
			c2.79-2.47,5.34-5.16,7.33-8.33c1.74-2.76,2.89-5.72,3.1-9.02c0.14-2.11-0.23-4.11-1.1-6.03c-1.07-2.35-2.7-4.26-4.64-5.92
			c-1.05-0.9-2.15-1.72-3.34-2.43c-0.46-0.28-0.7-0.6-0.74-1.17c-0.12-1.6-0.32-3.2-0.59-4.78c-0.11-0.64-0.26-1.27-0.46-1.89
			c-0.5-1.48-1.41-2.61-2.8-3.35c-0.75-0.4-1.52-0.72-2.33-0.94c-2.49-0.68-5.02-0.58-7.51-0.12c-4.11,0.75-7.19,3.06-9.45,6.52
			c-0.24,0.36-0.37,0.74-0.46,1.16c-0.33,1.47-0.16,2.89,0.28,4.3c0.37,1.17,0.65,2.36,0.72,3.59c0.27,0.36,0.55,0.72,0.81,1.08
			c0.49,0.68,0.88,1.42,1.21,2.19c0.17,0.41,0.28,0.82,0.36,1.24c0.03,0.21,0.06,0.42,0.07,0.64c0.01,0.21,0.02,0.43,0.02,0.65
			c0.04,0.02,0.07,0.05,0.11,0.08c0.03,0.03,0.06,0.06,0.09,0.09c0.08,0.1,0.13,0.21,0.18,0.33c0.05,0.12,0.09,0.24,0.15,0.35
			c0.6,1.2,1.14,2.42,1.87,3.55c0.52,0.81,1.1,1.56,1.78,2.24c0.61,0.59,1.28,1.1,2.06,1.44c1.04,0.45,2.1,0.66,3.24,0.35
			c0.96-0.26,1.93-0.47,2.86-0.82c2.02-0.75,3.68-2.01,5.02-3.69c0.5-0.63,0.94-1.3,1.41-1.95c1.15-1.61,1.63-3.44,1.68-5.39
			c0.02-0.92,0.01-1.84,0.03-2.75c0-0.31,0.2-0.41,0.45-0.24c2.07,1.43,3.8,3.19,5.1,5.36c1.35,2.24,1.9,4.65,1.58,7.25
			c-0.19,1.53-0.66,2.98-1.29,4.38c-0.92,2.04-2.19,3.86-3.63,5.55c-1.16,1.37-2.47,2.61-3.76,3.86c-0.42,0.41-0.83,0.46-1.34,0.28
			c-3.21-1.11-6.47-2.09-9.54-3.57c-0.72-0.35-1.43-0.72-2.15-1.08c-0.08-0.04-0.15-0.08-0.23-0.12c-0.53-0.29-1.03-0.62-1.62-0.79
			c-0.05,0.05-0.09,0.1-0.14,0.15c0.24,0.36,0.62,0.56,0.95,0.8c2.88,2.05,6.05,3.55,9.3,4.89c0.63,0.26,1.27,0.51,1.91,0.78
			c0.06,0.02,0.13,0.11,0.13,0.17c0.01,0.13-0.1,0.19-0.21,0.19c-0.73,0.03-1.45,0.08-2.17,0.08c-1.95-0.01-3.9,0.02-5.84-0.09
			c-5.74-0.34-11.36-1.27-16.67-3.61c-0.07-0.03-0.15-0.03-0.22-0.05c-0.25,0.06-0.41,0.23-0.51,0.46c0.67,0.56,1.42,0.96,2.2,1.32
			c0.26,0.12,0.52,0.23,0.78,0.34c3.11,1.32,6.36,2.12,9.67,2.72c2.19,0.4,4.39,0.54,6.61,0.47c0.69-0.02,1.37,0.02,2.06,0.02
			c0.68,0,1.17,0.29,1.51,0.86c0.06,0.1,0.13,0.19,0.18,0.29c0.52,1.03,1.34,1.74,2.35,2.26c0.37,0.19,0.73,0.41,1.07,0.66
			c0.28,0.2,0.54,0.43,0.76,0.69c0.6,0.73,0.54,1.01-0.22,1.53c-0.88,0.61-1.75,1.23-2.63,1.85c-1.14,0.81-1.03,0.66-0.48,1.8
			c0.13,0.28,0.26,0.55,0.4,0.83c0.13,0.25,0.05,0.43-0.18,0.57c-1.04,0.64-2.14,1.18-3.27,1.64c-0.95,0.4-1.57,1.05-1.92,2
			c-0.05,0.14-0.09,0.29-0.14,0.44c0.42,1,0.83,2.01,1.26,3.01c0.18,0.43,0.37,0.85,0.56,1.28c0.19,0.43,0.38,0.85,0.57,1.28
			c0.11,0.06,0.21,0.14,0.22,0.26c0.01,0.03,0,0.07,0,0.11c0.08-0.02,0.16,0,0.23,0.04c0.03,0.02,0.06,0.04,0.09,0.07
			c0.43,0.38,0.85,0.77,1.29,1.14c0.57,0.48,1.23,0.77,1.98,0.82c0.69,0.05,1.37,0.09,2.06,0.13c0.5,0.03,0.63,0.16,0.56,0.63
			c-0.13,0.95-0.44,1.86-0.81,2.74c-0.79,1.86-1.58,3.73-2.39,5.59c-0.44,1.02-0.94,2.01-1.37,3.03c-1.9,4.43-3.78,8.86-5.68,13.3
			c-1.01,2.36-2.03,4.7-3.04,7.06c-0.13,0.31-0.36,0.6-0.2,0.99c0.68,0.16,1.41-0.04,2.24,0.13c-0.35,0.37-0.6,0.64-0.86,0.9
			c-0.92,0.92-1.81,1.87-2.61,2.9c-0.7,0.91-0.81,1.87-0.26,2.89c0.26,0.49,0.64,0.85,1.15,1.08c0.88,0.41,1.8,0.65,2.77,0.65
			c1.61,0,3.21-0.02,4.82-0.02c1.07,0,2.14,0.03,3.22,0.02c1.17-0.02,2.15-0.46,2.91-1.37c0.5-0.59,0.92-1.22,1.28-1.9
			c0.59-1.12,1.02-2.3,1.38-3.52c0.16-0.55,0.25-1.12,0.52-1.61c0.31-0.14,0.62-0.08,0.92-0.08c0.54-0.01,1.07-0.01,1.61,0
			c0.34,0.01,0.58-0.11,0.77-0.4c0.25-0.38,0.53-0.75,0.8-1.13c2.25-3.19,4.51-6.37,6.75-9.57c5.36-7.65,10.6-15.37,15.61-23.26
			c1.29-2.04,2.48-4.13,3.44-6.35c1.84-4.26,2.85-8.71,3.04-13.34c0.06-1.46-0.08-2.91-0.23-4.35
			C128.75,81.38,128.7,80.46,128.3,79.57 M93.66,57.46c-0.05,1.51-0.65,2.82-1.45,4.05c-0.6,0.93-1.31,1.79-2.06,2.61
			c-1.37,1.5-3.16,2.25-5.07,2.77c-0.33,0.09-0.67,0.16-1.01,0.23c-1.3,0.27-2.42-0.07-3.38-0.97c-1.05-0.98-1.89-2.1-2.57-3.36
			c-0.77-1.42-1.4-2.89-2.03-4.37c-1.09-2.53-2.14-5.08-2.88-7.73c-0.25-0.89-0.43-1.79-0.39-2.72c0.02-0.51,0.1-1,0.4-1.42
			c1.68-2.4,3.76-4.33,6.54-5.39c1.04-0.4,2.12-0.65,3.24-0.69c0.5-0.02,0.99-0.07,1.49-0.1c1.5-0.09,2.98,0.06,4.41,0.52
			c0.47,0.15,0.93,0.36,1.37,0.58c1.08,0.54,1.81,1.39,2.16,2.56c0.15,0.51,0.32,1.03,0.4,1.55c0.52,3.29,0.84,6.6,0.94,10.15
			C93.73,56.17,93.68,56.81,93.66,57.46 M91.81,105.72c-0.98-0.06-1.76-0.21-2.42-0.74c-1.81-1.47-3.02-3.32-3.53-5.62
			c-0.08-0.36,0-0.59,0.29-0.78c0.57-0.38,1.19-0.68,1.85-0.88c1.13-0.35,2.31-0.51,3.46-0.77c1.9-0.43,3.78-0.92,5.68-1.36
			c0.59-0.14,1.2-0.23,1.8-0.33c0.49-0.08,0.92,0.06,1.24,0.43c0.9,1.06,1.63,2.22,2.01,3.57c0.21,0.78,0.06,1.5-0.51,2.13
			c-0.71,0.77-1.53,1.38-2.45,1.86c-0.61,0.31-1.24,0.61-1.88,0.84c-1.26,0.45-2.52,0.88-3.8,1.27
			C92.93,105.53,92.28,105.62,91.81,105.72 M94.35,141.16c-0.38,1.24-0.69,2.51-1.3,3.67c-0.19,0.37-0.39,0.74-0.63,1.09
			c-0.85,1.29-2.04,1.86-3.82,1.57c-1.58-0.26-3.2-0.26-4.79-0.05c-1.32,0.17-2.65,0.19-3.75-0.54c-0.43-0.29-0.53-0.62-0.33-1.08
			c0.09-0.21,0.2-0.42,0.36-0.58c1.11-1.16,2.13-2.4,3.34-3.48c0.81-0.72,1.71-1.12,2.81-1.09c1.18,0.04,2.37,0.01,3.56,0.01
			c0,0,0,0,0,0c1.38,0,2.75,0,4.13,0C94.32,140.68,94.45,140.83,94.35,141.16"/>
		<path d="M86.77,105.1L86.77,105.1c0.01-0.01,0.03-0.01,0.04-0.01c-0.24-0.03-0.16-0.23-0.17-0.38c-0.19-0.43-0.38-0.85-0.57-1.28
			c-0.19-0.43-0.38-0.85-0.56-1.28c-0.43-1-0.84-2.01-1.26-3.01c-0.58-1.16-1.15-2.33-1.74-3.49c-0.54-1.06-1.21-2.04-2-2.93
			c-0.62-0.69-1.31-1.29-2.12-1.74c-1.04-0.59-2.16-0.82-3.32-0.6c-1.2,0.23-2.38,0.54-3.52,1c-1.7,0.69-3.12,1.76-4.32,3.14
			c-0.91,1.04-1.69,2.17-2.37,3.37c-0.54,0.94-0.82,1.97-0.94,3.05c-0.12,1.06-0.18,2.13-0.16,3.21c0.01,0.41-0.01,0.83-0.02,1.21
			c-0.29,0.12-0.42-0.06-0.56-0.16c-1.85-1.33-3.46-2.9-4.69-4.83c-1.45-2.25-2.19-4.7-1.9-7.41c0.17-1.57,0.62-3.07,1.25-4.51
			c0.81-1.83,1.9-3.49,3.15-5.05c1.23-1.52,2.58-2.92,4.02-4.25c0.14-0.13,0.31-0.21,0.47-0.31c0.1-0.23,0.26-0.4,0.51-0.46
			c0.1-0.11,0.18-0.24,0.3-0.32c1.51-0.97,3.03-1.92,4.75-2.48c0.1-0.03,0.18-0.12,0.3-0.21c-0.4-0.61-0.79-1.2-1.18-1.8
			c-0.28-0.42-0.64-0.76-1.07-1.01c-0.46-0.27-0.92-0.55-1.38-0.81c-0.43-0.25-0.83-0.54-1.16-0.92c-0.7-0.81-0.65-1.09,0.21-1.68
			c0.85-0.58,1.7-1.16,2.53-1.78c1.17-0.88,1.12-0.56,0.49-1.87c-0.16-0.34-0.32-0.68-0.47-1c0.11-0.31,0.37-0.42,0.6-0.54
			c0.92-0.47,1.82-0.97,2.77-1.37c1.01-0.42,1.76-1.04,2.1-2.11c0.02-0.06,0.11-0.09,0.17-0.14c0-0.22,0-0.43-0.02-0.65
			c-0.01-0.21-0.04-0.43-0.07-0.64c-0.07-0.42-0.18-0.84-0.35-1.24c-0.33-0.77-0.72-1.51-1.21-2.19c-0.26-0.37-0.54-0.72-0.81-1.08
			c-0.42-0.4-0.85-0.78-1.24-1.19c-0.97-1-2.16-1.4-3.53-1.37c-0.53,0.01-1.06,0-1.56,0c-0.16-0.33-0.1-0.6-0.05-0.86
			c0.17-0.99,0.49-1.93,0.91-2.83c1.22-2.59,2.27-5.26,3.43-7.89c3.07-7,6.04-14.04,9.05-21.07c0.1-0.23,0.29-0.46,0.19-0.76
			c-0.33-0.14-0.67-0.02-1.01-0.05c-0.38-0.04-0.76,0.1-1.12-0.07c-0.02-0.51,0.45-0.66,0.72-0.94c0.93-0.97,1.85-1.94,2.66-3.01
			c0.97-1.27,0.39-3.11-0.88-3.74c-0.58-0.29-1.19-0.51-1.85-0.6c-0.84-0.11-1.67-0.16-2.52-0.12c-0.95,0.04-1.91,0.05-2.87,0.05
			c-0.84,0-1.68-0.03-2.52-0.07c-0.58-0.02-1.14,0.01-1.72,0.09c-0.96,0.13-1.73,0.57-2.35,1.3c-1.04,1.21-1.72,2.62-2.24,4.1
			c-0.28,0.79-0.49,1.61-0.73,2.42c-0.17,0.56-0.19,0.59-0.79,0.59c-0.65,0.01-1.3,0.01-1.95,0c-0.34-0.01-0.59,0.11-0.76,0.4
			c-0.08,0.13-0.18,0.25-0.26,0.38c-5.05,7.11-10.08,14.24-14.96,21.47c-2.93,4.34-5.83,8.71-8.59,13.17
			c-4.08,6.58-6.18,13.69-5.74,21.48c0.07,1.25,0.21,2.48,0.59,3.68c0.06-0.44,0.07-0.88,0.05-1.31c-0.04-1.69,0.04-3.37,0.31-5.04
			c0.66-4.02,1.83-7.89,3.52-11.6c1.41-3.1,3.19-6.01,5.04-8.87c4.33-6.73,8.79-13.36,13.35-19.93c2.53-3.65,5.12-7.25,7.67-10.88
			c0.26-0.38,0.53-0.56,1.02-0.56c4.59,0.02,9.19,0.01,13.78,0.02c0.19,0,0.38-0.04,0.56,0.1c0.1,0.4-0.18,0.72-0.32,1.05
			c-3.25,7.59-6.52,15.17-9.78,22.75c-1.09,2.53-2.17,5.05-3.24,7.59c-0.19,0.45-0.45,0.76-0.93,0.92c-0.5,0.17-0.99,0.4-1.48,0.61
			c-0.89,0.38-0.91,0.39-1.56-0.28c-1.39-1.43-2.75-2.87-4.14-4.3c-0.29-0.3-0.52-0.66-0.95-0.85c-0.19,0.11-0.39,0.22-0.59,0.34
			c-12,7.36-19.05,20.3-20.09,31.89c-0.2,2.25-0.13,4.51,0.32,6.74c0.57,2.8,1.56,5.43,2.95,7.92c4.69,8.38,11.57,14.33,20.28,18.24
			c0.09,0.04,0.21,0.04,0.33,0.07c-0.14-0.34-0.45-0.42-0.7-0.57c-1.82-1.07-3.53-2.3-5.16-3.63c-1.9-1.55-3.69-3.22-5.42-4.96
			c-1.84-1.85-3.51-3.84-4.99-5.99c-2.19-3.17-3.89-6.58-4.81-10.34c-0.49-1.98-0.77-3.98-0.66-6.02c0.12-2.26,0.52-4.48,1.11-6.67
			c2.46-9.14,7.49-16.59,14.87-22.47c0.68-0.55,1.4-1.05,2.09-1.57c1.12,0.85,3.27,3.09,4,4.16c-0.4,0.44-0.84,0.88-1.22,1.34
			c-0.84,1.02-1.04,2.16-0.66,3.44c0.43,1.42,1.18,2.65,2.02,3.84c0.62,0.88,1.43,1.31,2.53,1.3c1.36-0.02,2.65-0.31,3.94-0.69
			c0.62-0.18,1.21-0.48,1.87-0.48c0.49,0.47,0.98,0.95,1.46,1.42c-0.2,0.38-0.55,0.5-0.83,0.69c-1.95,1.29-3.82,2.68-5.58,4.22
			c-2.98,2.61-5.72,5.43-7.97,8.7c-1.48,2.16-2.69,4.44-3.45,6.96c-0.43,1.44-0.66,2.91-0.73,4.4c-0.01,0.12,0.1,0.21,0.22,0.2
			c0.05,0,0.13-0.1,0.13-0.16c0.16-2.53,1.25-4.7,2.57-6.79c0.62-0.97,1.28-1.91,1.99-2.81c2.69-3.42,5.83-6.38,9.27-9.03
			c0.24-0.18,0.44-0.43,0.81-0.47c1.1,0.83,2.32,1.52,3.42,2.36c-0.14,0.32-0.39,0.45-0.59,0.63c-0.92,0.81-1.86,1.6-2.76,2.43
			c-2.25,2.09-4.31,4.35-6,6.93c-1.22,1.87-2.2,3.84-2.81,6c-0.58,2.05-0.79,4.13-0.47,6.25c0.34,2.29,1.34,4.29,2.72,6.12
			c1.16,1.54,2.55,2.85,4.1,4c0.77,0.57,1.57,1.09,2.37,1.61c0.35,0.23,0.52,0.49,0.54,0.92c0.06,0.99,0.14,1.99,0.28,2.97
			c0.17,1.17,0.3,2.35,0.64,3.5c0.52,1.75,1.56,3.04,3.21,3.84c0.55,0.27,1.11,0.51,1.7,0.68c2.79,0.81,5.62,0.69,8.41,0.09
			c3.69-0.79,6.5-2.94,8.64-6.01c0.52-0.75,0.77-1.56,0.83-2.46c0.07-1.2-0.08-2.36-0.46-3.51c-0.08-0.24-0.16-0.49-0.23-0.73
			C86.91,106.63,86.77,105.88,86.77,105.1 M75.61,17.68c-0.63,0.53-1.33,0.8-2.19,0.83c-2.72,0.09-5.43,0.01-8.15-0.01
			c-0.11,0-0.22-0.04-0.42-0.08c0.34-1.28,0.69-2.45,1.17-3.58c0.41-0.96,0.94-1.84,1.73-2.54c0.35-0.31,0.73-0.51,1.22-0.55
			c0.84-0.07,1.68-0.15,2.52-0.1c1.49,0.09,2.99,0.06,4.48,0.01c0.62-0.02,1.22,0.04,1.83,0.12c0.15,0.02,0.31,0.03,0.45,0.08
			c1.55,0.56,1.99,0.97,0.74,2.38c-0.82,0.91-1.67,1.79-2.52,2.67C76.19,17.19,75.9,17.44,75.61,17.68 M65.27,62.83
			c-1.34,0.31-2.65,0.75-4,0.99c-0.41,0.07-0.83,0.11-1.25,0.16c-0.45,0.05-0.85-0.09-1.12-0.45c-0.83-1.06-1.56-2.17-1.93-3.48
			c-0.25-0.9-0.04-1.64,0.61-2.31c0.7-0.72,1.5-1.31,2.38-1.77c0.81-0.42,1.66-0.78,2.53-1.06c1.16-0.38,2.32-0.75,3.48-1.14
			c0.52-0.17,1.05-0.19,1.59-0.21c0.92-0.04,1.72,0.26,2.42,0.86c1.61,1.4,2.71,3.1,3.24,5.16c0.2,0.79,0.18,0.85-0.55,1.28
			c-0.87,0.51-1.81,0.81-2.79,1.01C68.34,62.19,66.8,62.47,65.27,62.83 M85.67,113.08c-1.75,2.36-3.9,4.19-6.72,5.14
			c-0.73,0.25-1.47,0.41-2.23,0.49c-1.83,0.19-3.67,0.26-5.49-0.11c-0.91-0.18-1.76-0.51-2.56-0.97c-0.94-0.54-1.59-1.32-1.92-2.34
			c-0.21-0.65-0.39-1.33-0.49-2c-0.43-2.96-0.81-5.92-0.78-8.91c0-0.84,0.01-1.68,0-2.52c-0.01-1.06,0.29-2.04,0.76-2.97
			c0.82-1.62,1.93-3.03,3.24-4.28c1.16-1.1,2.61-1.72,4.13-2.16c0.51-0.15,1.05-0.21,1.56-0.36c1.14-0.32,2.11,0.05,3,0.73
			c0.64,0.5,1.17,1.1,1.66,1.73c0.64,0.82,1.17,1.7,1.62,2.63c1.59,3.35,3.04,6.76,4.2,10.29c0.3,0.91,0.52,1.84,0.68,2.78
			C86.5,111.3,86.31,112.23,85.67,113.08"/>
	</g>
</g>
</svg>
